<svg width="98" height="98" viewBox="0 0 98 98" fill="none" xmlns="http://www.w3.org/2000/svg">
<g clip-path="url(#clip0)" filter="url(#filter0_d)">
<path d="M71.5596 70.5492L72.4837 67.5651V3.70152C72.4837 2.78552 71.7412 2.04285 70.8252 2.04285H27.1784C26.2624 2.04285 25.5199 2.78535 25.5199 3.70152V67.5651L26.444 70.5492H71.5596Z" fill="#407093"/>
<path d="M25.5199 67.5652V79.0604C25.5199 79.9764 26.2624 80.7191 27.1784 80.7191H70.8251C71.7411 80.7191 72.4836 79.9766 72.4836 79.0604V67.5652H25.5199Z" fill="#DAE7EF"/>
<path d="M70.8252 2.04309H66.3667V70.5494H71.5598L72.4839 67.5654V3.70159C72.4837 2.78559 71.7412 2.04309 70.8252 2.04309Z" fill="#2B4D66"/>
<path d="M66.3667 67.5652V72.9434C66.3667 73.8594 65.6242 74.6021 64.7082 74.6021H25.5199V79.0606C25.5199 79.9766 26.2624 80.7192 27.1784 80.7192H70.8251C71.7411 80.7192 72.4836 79.9767 72.4836 79.0606V67.5654H66.3667V67.5652Z" fill="#C1D5E4"/>
<path d="M70.825 82.1051H27.1784C25.4995 82.1051 24.1337 80.7393 24.1337 79.0604V3.70157C24.1337 2.02268 25.4995 0.65686 27.1784 0.65686H70.825C72.5039 0.65686 73.8697 2.02268 73.8697 3.70157V79.0604C73.8697 80.7393 72.5039 82.1051 70.825 82.1051ZM27.1784 3.42911C27.0281 3.42911 26.9059 3.55127 26.9059 3.70157V79.0604C26.9059 79.2107 27.0281 79.3329 27.1784 79.3329H70.825C70.9753 79.3329 71.0975 79.2107 71.0975 79.0604V3.70157C71.0975 3.55127 70.9753 3.42911 70.825 3.42911H27.1784Z" fill="#98B9D3"/>
<path d="M93.5152 71.2207C93.4563 70.8505 93.3747 70.4841 93.2791 70.1219L87.804 49.3862C87.3927 47.8282 86.6346 46.3835 85.5862 45.1599C84.9177 44.3796 84.3652 43.5072 83.9458 42.5692L75.1995 23.0137C74.9071 22.3602 74.4348 21.8464 73.8697 21.4958V40.4992L74.853 43.6415C75.0216 44.1802 75.107 44.7417 75.1059 45.3063L75.0912 54.5165C75.0875 56.7595 73.2683 58.5759 71.0254 58.5759H71.005C69.7153 58.5641 68.5011 57.9662 67.7054 56.9511C66.2893 55.1444 64.1896 52.4595 64.1896 52.4595C63.0053 50.9341 61.108 49.9842 59.1751 49.9801C57.7567 49.9626 56.323 50.4084 55.1186 51.3502C54.2597 52.0218 54.108 53.2623 54.7797 54.1212L63.5622 65.3515C64.0565 65.9836 64.3035 66.766 64.3056 67.5685C64.3147 70.9909 66.6959 73.9507 70.0391 74.6913L73.8556 75.5368C74.2353 75.6208 74.5055 75.9576 74.5055 76.3465V87.6998C74.5055 88.6074 75.2411 89.343 76.1487 89.343L92.3564 89.3103C93.264 89.3103 93.9996 88.5747 93.9996 87.6671V77.3502C94 75.297 93.8379 73.2476 93.5152 71.2207Z" fill="#EAAC9D"/>
<path d="M35.498 19.872C37.5007 19.872 39.1242 18.2485 39.1242 16.2458C39.1242 14.2431 37.5007 12.6196 35.498 12.6196C33.4953 12.6196 31.8718 14.2431 31.8718 16.2458C31.8718 18.2485 33.4953 19.872 35.498 19.872Z" fill="#DD5790"/>
<path d="M62.3617 19.872C64.3644 19.872 65.9879 18.2485 65.9879 16.2458C65.9879 14.2431 64.3644 12.6196 62.3617 12.6196C60.359 12.6196 58.7355 14.2431 58.7355 16.2458C58.7355 18.2485 60.359 19.872 62.3617 19.872Z" fill="#DD5790"/>
<path d="M35.498 32.1934C37.5007 32.1934 39.1242 30.5699 39.1242 28.5672C39.1242 26.5645 37.5007 24.941 35.498 24.941C33.4953 24.941 31.8718 26.5645 31.8718 28.5672C31.8718 30.5699 33.4953 32.1934 35.498 32.1934Z" fill="#DD5790"/>
<path d="M48.8171 44.3299C50.8198 44.3299 52.4433 42.7064 52.4433 40.7037C52.4433 38.701 50.8198 37.0775 48.8171 37.0775C46.8144 37.0775 45.1909 38.701 45.1909 40.7037C45.1909 42.7064 46.8144 44.3299 48.8171 44.3299Z" fill="#DD5790"/>
<path d="M47.5558 13.4353L45.1944 17.5255C44.6338 18.4964 45.3345 19.7098 46.4554 19.7098H51.1785C52.2994 19.7098 53.0001 18.4964 52.4395 17.5255L50.0781 13.4353C49.5175 12.4644 48.1164 12.4644 47.5558 13.4353Z" fill="#F6E266"/>
<path d="M61.1006 25.7567L58.7392 29.847C58.1786 30.8178 58.8793 32.0312 60.0002 32.0312H64.7233C65.8443 32.0312 66.5449 30.8178 65.9844 29.847L63.6229 25.7567C63.0623 24.7859 61.6612 24.7859 61.1006 25.7567Z" fill="#F6E266"/>
<path d="M34.237 38.0779L31.8755 42.1681C31.315 43.1389 32.0156 44.3524 33.1366 44.3524H37.8596C38.9806 44.3524 39.6813 43.1389 39.1207 42.1681L36.7593 38.0779C36.1987 37.1072 34.7974 37.1072 34.237 38.0779Z" fill="#F6E266"/>
<path d="M53.4721 76.1069H44.5315C43.766 76.1069 43.1455 75.4864 43.1455 74.7209C43.1455 73.9553 43.766 73.3348 44.5315 73.3348H53.4721C54.2377 73.3348 54.8582 73.9553 54.8582 74.7209C54.8582 75.4864 54.2377 76.1069 53.4721 76.1069Z" fill="#407093"/>
<path d="M65.88 44.3525H58.8431C58.3578 44.3525 57.9642 43.9589 57.9642 43.4736V39.2422C57.9642 38.7569 58.3578 38.3633 58.8431 38.3633H65.88C66.3653 38.3633 66.7589 38.7569 66.7589 39.2422V43.4736C66.7589 43.9589 66.3655 44.3525 65.88 44.3525Z" fill="#61A2F9"/>
<path d="M52.3372 31.5619H45.3003C44.815 31.5619 44.4214 31.1683 44.4214 30.6829V26.4515C44.4214 25.9662 44.815 25.5726 45.3003 25.5726H52.3372C52.8225 25.5726 53.2161 25.9662 53.2161 26.4515V30.6829C53.2161 31.1685 52.8225 31.5619 52.3372 31.5619Z" fill="#61A2F9"/>
<path d="M93.5152 71.2207C93.4564 70.8505 93.3748 70.4841 93.2792 70.1219L87.8041 49.3862C87.3928 47.8282 86.6346 46.3835 85.5863 45.1599C84.9178 44.3796 84.3653 43.5072 83.9459 42.5692L75.1995 23.0137C74.9072 22.3602 74.4349 21.8464 73.8698 21.4958V28.9064L79.9806 42.569C80.4 43.5068 80.9525 44.3794 81.621 45.1597C82.6694 46.3833 83.4275 47.8281 83.8388 49.386L89.3139 70.1217C89.4095 70.4841 89.4911 70.8503 89.55 71.2205C89.8727 73.2474 90.0348 75.2969 90.0348 77.35V87.6669C90.0348 88.5745 89.2991 89.3101 88.3916 89.3101L75.9967 89.3351C76.047 89.3397 76.0976 89.3428 76.1491 89.3428L92.3568 89.3101C93.2644 89.3101 94 88.5745 94 87.6669V77.35C94 75.297 93.838 73.2476 93.5152 71.2207Z" fill="#DF9380"/>
<path d="M42.8811 51.35C41.6768 50.4082 40.2431 49.9625 38.8247 49.98C36.892 49.984 34.9945 50.9341 33.8102 52.4593C33.8102 52.4593 31.7105 55.1444 30.2944 56.9509C29.4987 57.966 28.2847 58.5637 26.9948 58.5757H26.9744C24.7315 58.5757 22.9121 56.7593 22.9086 54.5163L22.8938 45.3061C22.893 44.7415 22.9782 44.18 23.147 43.6413L24.1338 40.4881V21.4939C23.5673 21.8446 23.0935 22.3589 22.8007 23.0139L14.0542 42.5692C13.6347 43.507 13.0823 44.3796 12.4138 45.1599C11.3654 46.3835 10.6073 47.8282 10.1959 49.3862L4.72088 70.1218C4.62525 70.4843 4.54369 70.8505 4.4848 71.2207C4.16225 73.2476 4 75.297 4 77.3501V87.6671C4 88.5747 4.73564 89.3103 5.6432 89.3103L21.8509 89.343C22.7585 89.343 23.4941 88.6074 23.4941 87.6998V76.3464C23.4941 75.9576 23.7643 75.6208 24.144 75.5368L27.9606 74.6913C31.3036 73.9507 33.6849 70.9907 33.694 67.5685C33.6961 66.766 33.9431 65.9834 34.4374 65.3515L43.22 54.1212C43.8916 53.2621 43.7399 52.0217 42.8811 51.35Z" fill="#EAAC9D"/>
<path d="M42.881 51.35C42.2691 50.8716 41.598 50.5217 40.8998 50.2952C40.8304 50.4889 40.7307 50.6754 40.5971 50.8464L31.8146 62.0767C31.3203 62.7088 31.0733 63.4914 31.0712 64.2939C31.062 67.7163 28.6807 70.6763 25.3377 71.4169L20.3923 72.6964C20.0126 72.7804 19.7424 73.1172 19.7424 73.506V89.3388L21.8509 89.343C22.7585 89.343 23.4941 88.6074 23.4941 87.6998V76.3465C23.4941 75.9576 23.7643 75.6208 24.144 75.5368L27.9606 74.6913C31.3036 73.9508 33.685 70.9908 33.694 67.5683C33.6961 66.7659 33.9431 65.9833 34.4374 65.3512L43.22 54.1209C43.8916 53.2622 43.7399 52.0217 42.881 51.35Z" fill="#DF9380"/>
</g>
<defs>
<filter id="filter0_d" x="0" y="0" width="98" height="98" filterUnits="userSpaceOnUse" color-interpolation-filters="sRGB">
<feFlood flood-opacity="0" result="BackgroundImageFix"/>
<feColorMatrix in="SourceAlpha" type="matrix" values="0 0 0 0 0 0 0 0 0 0 0 0 0 0 0 0 0 0 127 0"/>
<feOffset dy="4"/>
<feGaussianBlur stdDeviation="2"/>
<feColorMatrix type="matrix" values="0 0 0 0 0 0 0 0 0 0 0 0 0 0 0 0 0 0 0.25 0"/>
<feBlend mode="normal" in2="BackgroundImageFix" result="effect1_dropShadow"/>
<feBlend mode="normal" in="SourceGraphic" in2="effect1_dropShadow" result="shape"/>
</filter>
<clipPath id="clip0">
<rect width="90" height="90" fill="white" transform="translate(4)"/>
</clipPath>
</defs>
</svg>
