<svg width="79" height="75" viewBox="0 0 79 75" fill="none" xmlns="http://www.w3.org/2000/svg">
<g clip-path="url(#clip0)" filter="url(#filter0_d)">
<path d="M75 12.7067V13.8619H4V12.7067C3.99784 9.33651 5.41597 6.10337 7.94186 3.71978C10.4677 1.3362 13.8939 -0.00204234 17.4653 2.33958e-06H61.5347C65.1066 -0.00204234 68.5323 1.3362 71.0582 3.71978C73.584 6.10337 75.0022 9.33651 75 12.7067Z" fill="#E57E25"/>
<path d="M12.5689 32.3447L4 13.8619L39.4583 12.1295L75 13.8619L66.4311 32.3447H12.5689Z" fill="#805333"/>
<path d="M17.7334 32.562L21.7121 29.5957L24.121 31.2821L25.1166 34.5464L17.7334 32.562Z" fill="#802F34"/>
<path d="M46.8449 32.3448H72.3805C73.0576 32.3454 73.7044 32.6101 74.1681 33.0758C74.6318 33.542 74.8707 34.1677 74.8289 34.8056L72.6985 64.8399C72.6151 66.0524 71.5501 66.9965 70.2625 67.0001H8.73771C7.45012 66.9965 6.38517 66.0524 6.30175 64.8399L4.17129 34.8056C4.12958 34.1677 4.36901 33.542 4.83215 33.0758C5.29583 32.6101 5.94261 32.3454 6.61972 32.3448H46.8449Z" fill="#F29C1F"/>
<path d="M33.4309 33.8375L32.2284 27.3686L30.1965 22.7686C32.8503 22.2186 35.5592 21.9436 38.2758 21.9482C39.8803 21.9451 41.4826 22.0376 43.0746 22.2258L46.5019 33.8375H33.4309Z" fill="#F3D55B"/>
<path d="M29.9273 28.6249L29.1928 32.3447H23.2678L21.958 31.2937V31.282L22.7294 27.3659L26.72 26.0374L29.9148 28.6249H29.9273Z" fill="#CC4B4C"/>
<path d="M48.375 23.1729L48.3875 23.1263L48.5218 23.2076L48.375 23.1729Z" fill="#804537"/>
<path d="M41.9484 39.2758C41.9484 40.5517 40.852 41.5863 39.4999 41.5863C38.1479 41.5863 37.0515 40.5517 37.0515 39.2758C37.0515 37.9999 38.1479 36.9658 39.4999 36.9658C40.852 36.9658 41.9484 37.9999 41.9484 39.2758Z" fill="#2C2F38"/>
<path d="M32.1553 32.3448V41.5863C32.1553 45.4144 35.4433 48.5172 39.5 48.5172C43.5567 48.5172 46.8447 45.4144 46.8447 41.5863V32.3448H32.1553ZM39.5 41.5863C38.148 41.5863 37.0516 40.5517 37.0516 39.2758C37.0516 37.9999 38.148 36.9658 39.5 36.9658C40.8521 36.9658 41.9484 37.9999 41.9484 39.2758C41.9441 40.5501 40.8504 41.5827 39.5 41.5863Z" fill="#F0C419"/>
<path d="M34.0403 46.2066H12.3365L11.9325 40.5116C11.9086 40.1917 12.0272 39.8768 12.2591 39.6421C12.4915 39.4075 12.8165 39.2751 13.1567 39.2756H32.1553V41.5861C32.1509 43.2944 32.8237 44.9425 34.0403 46.2066Z" fill="#AF8066"/>
<path d="M66.6634 46.2067L66.1737 53.1381H12.8262L12.3365 46.2067H34.0403C35.4276 47.6768 37.4139 48.5172 39.5 48.5172C41.586 48.5172 43.5724 47.6768 44.9597 46.2067H66.6634Z" fill="#805333"/>
<path d="M66.1738 53.1381L65.7578 58.9945C65.7128 59.6008 65.1776 60.0705 64.5336 60.069H14.4665C13.8225 60.0705 13.2873 59.6008 13.2423 58.9945L12.8263 53.1381H66.1738Z" fill="#AF8066"/>
<path d="M67.0676 40.5116L66.6635 46.2066H44.9597C46.1763 44.9425 46.8491 43.2944 46.8448 41.5861V39.2756H65.8434C66.1835 39.2751 66.5086 39.4075 66.7409 39.6421C66.9728 39.8768 67.0914 40.1917 67.0676 40.5116Z" fill="#AF8066"/>
<path d="M24.8105 2.33958e-06C19.6813 2.33958e-06 15.1766 1.54782 12.5565 4.62046C11.4092 5.95564 10.6465 7.54691 10.341 9.24144C10.1909 10.0031 10.1173 10.777 10.1205 11.5519V13.8619H4V12.7067C3.99784 9.33651 5.41597 6.10337 7.94186 3.71978C10.4677 1.3362 13.8939 -0.00204234 17.4653 2.33958e-06H24.8105Z" fill="#F0C419"/>
<path d="M75 12.7067V13.8619H68.8795V11.5519C68.8827 10.777 68.8091 10.0031 68.659 9.24144C68.3535 7.54691 67.5908 5.95564 66.4435 4.62046C63.8234 1.54782 59.3187 2.33958e-06 54.1895 2.33958e-06H61.5347C65.1066 -0.00204234 68.5323 1.3362 71.0581 3.71978C73.584 6.10337 75.0022 9.33651 75 12.7067Z" fill="#F0C419"/>
<path d="M68.8795 11.5519V13.8619H10.1206V11.5519C10.1173 10.777 10.191 10.0031 10.3411 9.24146H68.6591C68.8091 10.0031 68.8828 10.777 68.8795 11.5519Z" fill="#CB8252"/>
<path d="M68.659 9.24145H10.3409C10.6465 7.54693 11.4091 5.95566 12.5564 4.62048H66.4435C67.5908 5.95566 68.3535 7.54693 68.659 9.24145Z" fill="#AF8066"/>
<path d="M39.5001 45.052C38.8241 45.052 38.2759 44.5347 38.2759 43.8968V41.5863C38.2759 40.9483 38.8241 40.431 39.5001 40.431C40.1761 40.431 40.7243 40.9483 40.7243 41.5863V43.8968C40.7243 44.5347 40.1761 45.052 39.5001 45.052Z" fill="#2C2F38"/>
<path d="M63.383 31.4901L57.7522 28.348L56.2219 22.722L57.1645 23.2419L61.8403 25.853L63.383 31.4901Z" fill="#E64C3C"/>
<path d="M54.3367 21.6711L48.3874 23.1264L42.756 19.9847L48.7178 18.5406L53.4061 21.1512L54.3367 21.6711Z" fill="#CC4B4C"/>
<path d="M57.7521 28.3479L48.5462 23.2188L48.5218 23.2076L48.3875 23.1263L54.3368 21.671H54.3487L56.2219 22.722L57.7521 28.3479Z" fill="#FB7B76"/>
<path d="M48.3874 23.1263L48.3749 23.1728L46.5017 32.3447H44.4943L43.0745 22.2256L42.756 19.9846L48.3874 23.1263Z" fill="#FF5364"/>
<path d="M57.7521 28.3479L52.6597 32.3448H46.5018L48.375 23.1729L48.5218 23.2076L48.5462 23.2189L57.7521 28.3479Z" fill="#CC4B4C"/>
<path d="M63.383 31.4901L61.057 32.3447H52.6598L57.7522 28.3479L63.383 31.4901Z" fill="#802F34"/>
<path d="M35.2646 26.8462L34.1872 32.3448H29.1929L29.9274 28.6251L35.2646 26.8462Z" fill="#802F34"/>
<path d="M35.2645 26.8461L29.9273 28.625H29.9148L26.72 26.0374L27.7481 20.7933L30.1965 22.7685L35.2645 26.8461Z" fill="#E64C3C"/>
<path d="M27.748 20.7933L26.7199 26.0374L22.7293 27.3659L18.4326 23.9007L27.748 20.7933Z" fill="#FB7B76"/>
<path d="M22.7294 27.366L21.958 31.282L18.7756 32.3448H16.78L17.6245 28.0244L18.4327 23.9008L22.7294 27.366Z" fill="#FF5364"/>
</g>
<defs>
<filter id="filter0_d" x="0" y="0" width="79" height="75" filterUnits="userSpaceOnUse" color-interpolation-filters="sRGB">
<feFlood flood-opacity="0" result="BackgroundImageFix"/>
<feColorMatrix in="SourceAlpha" type="matrix" values="0 0 0 0 0 0 0 0 0 0 0 0 0 0 0 0 0 0 127 0"/>
<feOffset dy="4"/>
<feGaussianBlur stdDeviation="2"/>
<feColorMatrix type="matrix" values="0 0 0 0 0 0 0 0 0 0 0 0 0 0 0 0 0 0 0.25 0"/>
<feBlend mode="normal" in2="BackgroundImageFix" result="effect1_dropShadow"/>
<feBlend mode="normal" in="SourceGraphic" in2="effect1_dropShadow" result="shape"/>
</filter>
<clipPath id="clip0">
<rect width="71" height="67" fill="white" transform="translate(4)"/>
</clipPath>
</defs>
</svg>
