<svg width="217" height="202" viewBox="0 0 217 202" fill="none" xmlns="http://www.w3.org/2000/svg">
<g clip-path="url(#clip0)" filter="url(#filter0_d)">
<path d="M211.108 65.4365L210.589 68.1987L23.8509 33.1448L24.3694 30.3825C25.8764 22.3232 31.0575 15.2927 38.7707 10.8404C46.4839 6.38819 56.0958 4.87991 65.488 6.64804L181.396 28.4059C190.791 30.1645 199.2 35.0556 204.774 42.002C210.348 48.9484 212.626 57.3793 211.108 65.4365Z" fill="#E57E25" fill-opacity="0.3"/>
<path d="M38.0923 81.5693L23.8509 33.1447L117.888 46.5089L210.589 68.1987L179.756 108.162L38.0923 81.5693Z" fill="#805333" fill-opacity="0.3"/>
<path d="M51.578 84.6386L63.3739 79.5102L68.9526 84.7317L70.106 93.0285L51.578 84.6386Z" fill="#802F34" fill-opacity="0.3"/>
<path d="M128.242 98.4919L195.404 111.099C197.184 111.435 198.767 112.387 199.777 113.73C200.787 115.073 201.135 116.687 200.739 118.192L181.655 188.954C180.891 191.812 177.666 193.544 174.278 192.917L12.4608 162.541C9.07594 161.897 6.69875 159.113 7.02356 156.173L14.9009 83.3071C15.0776 81.7611 15.9881 80.3833 17.4155 79.4973C18.844 78.6128 20.664 78.299 22.4451 78.632L128.242 98.4919Z" fill="#F29C1F" fill-opacity="0.3"/>
<path d="M92.2917 95.4383L92.0324 79.3771L88.7531 67.375C95.9795 67.37 103.228 68.0499 110.371 69.4021C114.592 70.187 118.765 71.1993 122.868 72.4351L126.67 101.892L92.2917 95.4383Z" fill="#F3D55B" fill-opacity="0.3"/>
<path d="M85.4165 81.2451L81.815 89.7767L66.2316 86.8515L63.2584 83.6919L63.2637 83.6638L67.0501 74.681L78.1422 73.4746L85.3837 81.239L85.4165 81.2451Z" fill="#CC4B4C" fill-opacity="0.3"/>
<path d="M136.383 77.3165L136.437 77.2115L136.754 77.4721L136.383 77.3165Z" fill="#804537" fill-opacity="0.3"/>
<path d="M112.253 112.647C111.68 115.698 108.332 117.63 104.776 116.963C101.22 116.295 98.8009 113.28 99.3736 110.229C99.9463 107.179 103.294 105.247 106.85 105.915C110.406 106.582 112.826 109.596 112.253 112.647Z" fill="#2C2F38" fill-opacity="0.3"/>
<path d="M89.6067 91.2395L85.4587 113.336C83.7405 122.49 90.9957 131.532 101.665 133.535C112.335 135.538 122.376 129.742 124.094 120.589L128.242 98.4919L89.6067 91.2395ZM104.776 116.963C101.22 116.295 98.801 113.28 99.3736 110.229C99.9463 107.179 103.294 105.247 106.85 105.915C110.406 106.582 112.826 109.596 112.253 112.647C111.67 115.692 108.33 117.621 104.776 116.963Z" fill="#F0C419" fill-opacity="0.3"/>
<path d="M88.3429 125.315L31.2594 114.599L32.7527 100.783C32.8336 100.006 33.287 99.3116 34.0021 98.865C34.7186 98.4188 35.6328 98.2627 36.5273 98.4318L86.4958 107.812L85.4588 113.336C84.6806 117.419 85.7104 121.692 88.3429 125.315Z" fill="#AF8066" fill-opacity="0.3"/>
<path d="M174.145 141.421L169.746 157.753L29.4361 131.415L31.2593 114.599L88.3428 125.315C91.3316 129.515 96.1788 132.505 101.665 133.535C107.152 134.565 112.753 133.536 117.062 130.706L174.145 141.421Z" fill="#805333" fill-opacity="0.3"/>
<path d="M169.747 157.753L166.024 171.551C165.633 172.979 164.015 173.838 162.322 173.516L30.6394 148.797C28.9447 148.483 27.7479 147.095 27.9018 145.623L29.4363 131.415L169.747 157.753Z" fill="#AF8066" fill-opacity="0.3"/>
<path d="M177.764 128.004L174.145 141.421L117.062 130.706C120.829 128.284 123.338 124.676 124.094 120.589L125.131 115.064L175.099 124.444C175.994 124.611 176.79 125.088 177.296 125.764C177.8 126.439 177.971 127.251 177.764 128.004Z" fill="#AF8066" fill-opacity="0.3"/>
<path d="M84.8069 10.2745C71.3164 7.74213 58.7739 9.21905 50.5035 15.2724C46.8867 17.8984 44.1665 21.3267 42.6023 25.2276C41.8658 26.9747 41.3247 28.7888 40.9854 30.6433L39.9486 36.1666L23.8509 33.1448L24.3694 30.3825C25.8764 22.3232 31.0575 15.2927 38.7707 10.8404C46.4839 6.38819 56.0958 4.87991 65.488 6.64804L84.8069 10.2745Z" fill="#F0C419" fill-opacity="0.3"/>
<path d="M211.108 65.4364L210.589 68.1986L194.492 65.1768L195.528 59.6535C195.885 57.8022 196.038 55.9153 195.986 54.0201C195.943 49.8175 194.651 45.6361 192.233 41.8772C186.721 33.2367 175.567 27.3117 162.077 24.7793L181.396 28.4058C190.791 30.1644 199.2 35.0555 204.774 42.0019C210.347 48.9483 212.626 57.3792 211.108 65.4364Z" fill="#F0C419" fill-opacity="0.3"/>
<path d="M195.528 59.6537L194.492 65.177L39.9486 36.1667L40.9854 30.6434C41.3247 28.7888 41.8658 26.9747 42.6023 25.2277L195.986 54.0203C196.038 55.9155 195.885 57.8024 195.528 59.6537Z" fill="#CB8252" fill-opacity="0.3"/>
<path d="M195.985 54.0203L42.6022 25.2277C44.1663 21.3268 46.8865 17.8985 50.5033 15.2724L192.233 41.8774C194.651 45.6363 195.943 49.8177 195.985 54.0203Z" fill="#AF8066" fill-opacity="0.3"/>
<path d="M103.221 125.249C101.443 124.916 100.233 123.408 100.52 121.883L101.557 116.358C101.843 114.833 103.517 113.867 105.295 114.2C107.073 114.534 108.283 116.042 107.996 117.567L106.959 123.092C106.673 124.617 104.999 125.583 103.221 125.249Z" fill="#2C2F38" fill-opacity="0.3"/>
<path d="M172.123 104.613L158.723 94.3203L157.224 80.1128L159.47 81.8212L170.596 90.3729L172.123 104.613Z" fill="#E64C3C" fill-opacity="0.3"/>
<path d="M152.737 76.6692L136.437 77.2116L123.036 66.9194L139.364 66.41L150.523 74.9667L152.737 76.6692Z" fill="#CC4B4C" fill-opacity="0.3"/>
<path d="M158.723 94.3204L136.813 77.5112L136.754 77.4723L136.437 77.2117L152.738 76.6692L152.769 76.6751L157.224 80.1129L158.723 94.3204Z" fill="#FB7B76" fill-opacity="0.3"/>
<path d="M136.437 77.2116L136.383 77.3167L127.34 98.3226L122.06 97.3315L122.868 72.435L123.036 66.9194L136.437 77.2116Z" fill="#FF5364" fill-opacity="0.3"/>
<path d="M158.723 94.3203L143.536 101.363L127.34 98.3226L136.383 77.3167L136.754 77.4722L136.813 77.5112L158.723 94.3203Z" fill="#CC4B4C" fill-opacity="0.3"/>
<path d="M172.123 104.614L165.622 105.509L143.536 101.363L158.723 94.3204L172.123 104.614Z" fill="#802F34" fill-opacity="0.3"/>
<path d="M100.253 79.6269L94.9509 92.2426L81.8152 89.7768L85.4167 81.2452L100.253 79.6269Z" fill="#802F34" fill-opacity="0.3"/>
<path d="M100.253 79.627L85.4166 81.2453L85.3838 81.2391L78.1423 73.4748L83.2002 61.4434L88.7533 67.375L100.253 79.627Z" fill="#E64C3C" fill-opacity="0.3"/>
<path d="M83.1998 61.4432L78.1419 73.4745L67.0499 74.6809L57.3045 64.274L83.1998 61.4432Z" fill="#FB7B76" fill-opacity="0.3"/>
<path d="M67.0502 74.6811L63.2637 83.6639L54.4166 84.6337L49.168 83.6485L53.3283 73.735L57.3048 64.2742L67.0502 74.6811Z" fill="#FF5364" fill-opacity="0.3"/>
</g>
<defs>
<filter id="filter0_d" x="-3.99976" y="0" width="224.811" height="203.256" filterUnits="userSpaceOnUse" color-interpolation-filters="sRGB">
<feFlood flood-opacity="0" result="BackgroundImageFix"/>
<feColorMatrix in="SourceAlpha" type="matrix" values="0 0 0 0 0 0 0 0 0 0 0 0 0 0 0 0 0 0 127 0"/>
<feOffset dy="4"/>
<feGaussianBlur stdDeviation="2"/>
<feColorMatrix type="matrix" values="0 0 0 0 0 0 0 0 0 0 0 0 0 0 0 0 0 0 0.25 0"/>
<feBlend mode="normal" in2="BackgroundImageFix" result="effect1_dropShadow"/>
<feBlend mode="normal" in="SourceGraphic" in2="effect1_dropShadow" result="shape"/>
</filter>
<clipPath id="clip0">
<rect width="190" height="163" fill="white" transform="translate(30.0728) rotate(10.6317)"/>
</clipPath>
</defs>
</svg>
