<svg width="286" height="293" viewBox="0 0 286 293" fill="none" xmlns="http://www.w3.org/2000/svg">
<g clip-path="url(#clip0)">
<path d="M193.543 51.3829L200.02 81.5469L200.045 81.6153L200.055 82.2653C200.232 87.933 197.841 93.2803 193.597 96.7074L191.801 98.1517L194.105 98.1425C197.804 98.1391 201.378 99.3338 204.316 101.523L210.199 128.975L194.524 147.184L203.176 210.152L190.457 206.93L162.584 77.7389L193.543 51.3829Z" fill="#4FC1E9"/>
<path d="M162.584 77.7389L190.457 206.93L179.509 204.156L169.922 201.708L158.251 154.617L158.239 154.582L135.79 64.1596L162.584 77.7389Z" fill="#69D6F4"/>
<path d="M158.65 25.2902L193.543 51.3829L162.584 77.7389L135.79 64.1596L158.65 25.2902Z" fill="#3BAFDA"/>
<path d="M107.708 77.9582L158.239 154.582L158.251 154.617L169.922 201.708L157.812 198.654L92.1908 106.533L107.708 77.9582Z" fill="#4FC1E9"/>
<path d="M157.812 198.654L155.33 202.918L82.728 152.193L60.4761 110.082L92.1908 106.534L157.812 198.654Z" fill="#69D6F4"/>
<path d="M107.708 77.9582L92.1908 106.533L60.4761 110.082L61.0074 59.8963L107.708 77.9582Z" fill="#4FC1E9"/>
<path d="M78.1857 180.724L126.476 213.606L103.314 210.277L96.3245 225.908L48.8929 191.106L78.1857 180.724Z" fill="#69D6F4"/>
<path d="M146.382 218.089L146.132 228.754L134.196 214.716L126.476 213.606L78.1857 180.724L82.728 152.193L155.33 202.918L146.382 218.089Z" fill="#4FC1E9"/>
<path d="M82.728 152.193L78.1857 180.724L48.8929 191.106L46.5476 153.478L82.728 152.193Z" fill="#3BAFDA"/>
<path d="M145.928 237.48L153.581 242.844L127.988 259.222L115.046 233.041L134.196 214.716L146.132 228.754L145.928 237.48Z" fill="#69D6F4"/>
<path d="M126.476 213.606L134.196 214.716L115.046 233.041L91.0515 237.699L96.3245 225.908L103.314 210.277L126.476 213.606Z" fill="#3BAFDA"/>
<path d="M115.046 233.041L127.988 259.222L123.901 268.362L114.136 271.823L91.0515 237.699L115.046 233.041Z" fill="#4FC1E9"/>
<path d="M164.245 227.142L176.809 241.919L160.536 247.686L153.581 242.844L145.928 237.48L146.132 228.754L146.382 218.089L164.245 227.142Z" fill="#3BAFDA"/>
<path d="M203.176 210.152L206.102 231.537L176.809 241.919L164.245 227.142L179.509 204.156L190.457 206.93L203.176 210.152Z" fill="#4FC1E9"/>
<path d="M169.922 201.708L179.509 204.156L164.245 227.142L146.382 218.089L155.33 202.918L157.812 198.654L169.922 201.708Z" fill="#69D6F4"/>
<path d="M215.642 155.083L219.121 226.923L206.102 231.537L203.176 210.152L194.524 147.184L215.642 155.083Z" fill="#69D6F4"/>
<path d="M223.061 113.994L252.655 145.811L215.642 155.083L223.061 113.994Z" fill="#69D6F4"/>
<path d="M252.655 145.811L237.817 227.988L219.121 226.923L215.642 155.083L252.655 145.811Z" fill="#4FC1E9"/>
<path d="M210.199 128.975L223.061 113.994L215.642 155.083L194.524 147.184L210.199 128.975Z" fill="#3BAFDA"/>
<path d="M58.1713 110.091L60.4761 110.082L58.6799 111.526C54.4358 114.953 52.0445 120.3 52.2215 125.968L52.3009 128.363L50.8545 126.453C47.4228 121.939 42.1979 119.291 36.7429 119.301L34.4381 119.31L36.2343 117.866C40.4784 114.439 42.8696 109.092 42.6927 103.424L42.6133 101.029L44.0597 102.939C47.4914 107.453 52.7162 110.101 58.1713 110.091Z" fill="#FF826E"/>
<path d="M216.042 90.3676C211.798 93.7947 209.407 99.142 209.584 104.81L209.663 107.205L208.217 105.294C207.115 103.839 205.777 102.544 204.316 101.523C201.379 99.3338 197.804 98.1391 194.105 98.1425L191.801 98.1517L193.597 96.7074C197.841 93.2803 200.232 87.933 200.055 82.2653L200.045 81.6152L200.02 81.5469L199.976 79.8705L201.422 81.7808C204.854 86.295 210.079 88.943 215.534 88.9326L217.839 88.9234L216.042 90.3676Z" fill="#FF826E"/>
<path d="M222.887 108.698L212.077 121.271L210.539 114.109L213.492 118.008L213.055 104.803C212.905 100.287 214.838 95.9633 218.225 93.2399L228.127 85.277L215.42 85.3233C211.073 85.3406 206.849 83.1996 204.121 79.5973L202.743 77.7746L196.633 49.3108L157.575 20.1062L132.063 63.4845L150.025 135.872L109.907 75.0023L57.5882 54.7662L57.0412 106.365C53.0645 106.071 49.2728 104.076 46.7601 100.759L38.7842 90.2252L39.2221 103.431C39.3718 107.947 37.4384 112.27 34.0513 114.994L24.1465 122.958L36.8591 122.906C41.2053 122.888 45.4254 125.027 48.1541 128.633L56.1299 139.167L55.6921 125.961C55.5651 122.099 57.0311 118.441 59.5551 115.743L77.0136 148.784L42.8593 149.997L45.5375 192.999L91.9491 227.032L87.0542 237.977L112.861 276.121L126.459 271.301L130.724 261.763L153.589 247.118L160.119 251.68L219.707 230.561L240.691 231.758L256.404 144.728L222.887 108.698ZM49.3583 120.06C47.2433 118.445 44.8586 117.236 42.3471 116.507C43.8378 114.356 44.9271 111.92 45.5559 109.332C47.6709 110.947 50.0543 112.153 52.567 112.885C51.0752 115.033 49.987 117.472 49.3583 120.06ZM200.571 145.648L217.309 126.182L212.958 150.281L200.571 145.648ZM225.265 121.474L245.985 143.748L220.072 150.24L225.265 121.474ZM209.93 91.7265C208.438 93.8744 207.35 96.3137 206.721 98.9018C204.606 97.2862 202.221 96.0776 199.71 95.3486C201.2 93.1973 202.29 90.7613 202.918 88.1732C205.033 89.7889 207.417 90.994 209.93 91.7265ZM187.844 51.5027L162.02 73.4892L140.763 62.7163L159.725 30.4741L187.844 51.5027ZM140.986 70.7562L159.572 80.1757L185.887 202.088L172.744 198.754L140.986 70.7562ZM163.015 222.555L151.355 216.646L159.513 202.77L173.766 206.384L163.015 222.555ZM113.357 229.682L97.1019 232.836L105.432 214.207L126.383 217.22L113.357 229.682ZM127.639 210.148L81.9888 179.061L85.2994 158.269L150.606 203.896L142.934 216.938L142.871 219.553L135.88 211.331L127.639 210.148ZM90.6509 110.344L151.773 196.149L85.3369 149.733L65.9813 113.107L90.6509 110.344ZM155.031 156.054L165.149 196.831L159.803 195.476L96.3243 106.361L108.049 84.7715L155.031 156.054ZM64.4266 65.0265L102.661 79.8123L89.9949 103.139L63.9921 106.047L64.4266 65.0265ZM50.2359 156.959L78.5904 155.951L75.087 177.976L52.0563 186.139L50.2359 156.959ZM56.4278 192.281L77.7953 184.708L111.815 207.872L101.199 206.346L94.8799 220.478L56.4278 192.281ZM121.342 265.423L115.412 267.525L96.9567 240.241L113.193 237.086L124.126 259.198L121.342 265.423ZM129.303 254.083L119.334 233.914L134.017 219.864L142.63 229.995L142.412 239.303L147.178 242.632L129.303 254.083ZM149.447 235.656L149.726 223.75L162.149 230.046L170.791 240.206L160.952 243.693L149.447 235.656ZM202.268 229.05L177.802 237.721L168.648 226.954L181.089 208.242L200.072 213.056L202.268 229.05ZM193.37 203.986L166.434 79.1936L191.412 57.9301L196.574 81.9724L196.585 82.2723C196.734 86.7882 194.801 91.1117 191.414 93.8352L181.509 101.799L194.222 101.747C196.702 101.737 199.107 102.496 201.252 103.763L206.422 127.849L190.864 145.943L199.028 205.415L193.37 203.986ZM198.753 152.561L212.382 157.661L215.528 224.35L208.927 226.69L198.753 152.561ZM234.945 224.218L222.427 223.505L219.25 157.915L248.228 150.656L234.945 224.218Z" fill="white" fill-opacity="0.3"/>
<path d="M105.363 40.33L111.873 38.0229L116.716 51.69L110.207 53.997L105.363 40.33Z" fill="white" fill-opacity="0.3"/>
<path d="M97.1879 58.6112L110.207 53.997L112.629 60.8306L99.6098 65.4447L97.1879 58.6112Z" fill="white" fill-opacity="0.3"/>
<path d="M116.716 51.69L129.735 47.0758L132.157 53.9093L119.138 58.5235L116.716 51.69Z" fill="white" fill-opacity="0.3"/>
<path d="M112.629 60.8306L119.138 58.5235L123.982 72.1905L117.473 74.4976L112.629 60.8306Z" fill="white" fill-opacity="0.3"/>
</g>
<defs>
<clipPath id="clip0">
<rect width="221" height="232" fill="white" transform="translate(0 73.8265) rotate(-19.5152)"/>
</clipPath>
</defs>
</svg>
