<svg width="90" height="98" viewBox="0 0 90 98" fill="none" xmlns="http://www.w3.org/2000/svg">
<g clip-path="url(#clip0)" filter="url(#filter0_d)">
<path d="M67.5882 88.6816H27.3538C25.4044 88.6816 23.824 87.1014 23.824 85.1518V11.0253C23.824 9.07593 25.4042 7.49548 27.3538 7.49548H67.5882C69.5376 7.49548 71.1181 9.07576 71.1181 11.0253V85.1518C71.1181 87.1014 69.5376 88.6816 67.5882 88.6816Z" fill="#F1CB86"/>
<path d="M61.2403 82.5045H22.4122C20.4628 82.5045 18.8823 80.9242 18.8823 78.9746V4.84822C18.8823 2.89881 20.4626 1.31836 22.4122 1.31836H61.2403C63.1897 1.31836 64.7702 2.89863 64.7702 4.84822V78.9746C64.7702 80.9241 63.1897 82.5045 61.2403 82.5045Z" fill="#F9EFDA"/>
<path d="M61.2404 1.31836H56.6516C58.601 1.31836 60.1815 2.89863 60.1815 4.84822V78.9746C60.1815 80.9241 58.601 82.5045 56.6516 82.5045H61.2404C63.1898 82.5045 64.7702 80.9241 64.7702 78.9746V4.84822C64.7702 2.89863 63.1898 1.31836 61.2404 1.31836Z" fill="#F6E4C1"/>
<path d="M41.8262 33.44C48.357 33.44 53.6512 28.1458 53.6512 21.615C53.6512 15.0843 48.357 9.79004 41.8262 9.79004C35.2954 9.79004 30.0012 15.0843 30.0012 21.615C30.0012 28.1458 35.2954 33.44 41.8262 33.44Z" fill="#DF75A5"/>
<path d="M48.9607 12.1859C50.4638 14.1691 51.3568 16.6402 51.3568 19.3205C51.3568 25.8513 46.0626 31.1455 39.5318 31.1455C36.8515 31.1455 34.3806 30.2525 32.3972 28.7496C34.5563 31.5987 37.9758 33.44 41.8261 33.44C48.3569 33.44 53.6511 28.1458 53.6511 21.615C53.6511 17.7645 51.8098 14.3452 48.9607 12.1859Z" fill="#DD5790"/>
<path d="M33.7077 60.9724C36.6319 60.9724 39.0024 58.6018 39.0024 55.6776C39.0024 52.7535 36.6319 50.3829 33.7077 50.3829C30.7835 50.3829 28.413 52.7535 28.413 55.6776C28.413 58.6018 30.7835 60.9724 33.7077 60.9724Z" fill="#DF75A5"/>
<path d="M49.9447 74.0326C52.8689 74.0326 55.2394 71.6621 55.2394 68.7379C55.2394 65.8138 52.8689 63.4432 49.9447 63.4432C47.0205 63.4432 44.65 65.8138 44.65 68.7379C44.65 71.6621 47.0205 74.0326 49.9447 74.0326Z" fill="#DF75A5"/>
<path d="M36.124 50.967C36.4965 51.6916 36.7079 52.5125 36.7079 53.3833C36.7079 56.3074 34.3374 58.678 31.4132 58.678C30.5424 58.678 29.7215 58.4664 28.9969 58.0941C29.8752 59.8029 31.6542 60.9725 33.7077 60.9725C36.632 60.9725 39.0024 58.6019 39.0024 55.6778C39.0024 53.6243 37.8328 51.8452 36.124 50.967Z" fill="#DD5790"/>
<path d="M52.3611 64.0275C52.7335 64.752 52.945 65.5729 52.945 66.4438C52.945 69.3679 50.5744 71.7385 47.6503 71.7385C46.7795 71.7385 45.9586 71.5268 45.234 71.1545C46.1122 72.8633 47.8913 74.0329 49.9448 74.0329C52.8691 74.0329 55.2395 71.6624 55.2395 68.7382C55.2395 66.6848 54.0698 64.9057 52.3611 64.0275Z" fill="#DD5790"/>
<path d="M71.1178 68.5547C71.8461 68.5547 72.4362 67.9646 72.4362 67.2363V11.025C72.4362 8.35172 70.2614 6.17695 67.5882 6.17695H66.0887V4.84805C66.0887 2.17477 63.914 0 61.2407 0H22.4124C19.7391 0 17.5643 2.17477 17.5643 4.84805V16.6605C17.5643 17.3888 18.1544 17.9789 18.8827 17.9789C19.6109 17.9789 20.201 17.3888 20.201 16.6605V4.84805C20.201 3.62865 21.1931 2.63672 22.4124 2.63672H61.2407C62.4601 2.63672 63.452 3.62883 63.452 4.84805V40.5932H20.201V22.8129C20.201 22.0846 19.6109 21.4945 18.8827 21.4945C18.1544 21.4945 17.5643 22.0846 17.5643 22.8129V41.9047C17.5643 41.907 17.564 41.9092 17.564 41.9115C17.564 41.9138 17.5643 41.9161 17.5643 41.9184V78.975C17.5643 81.6483 19.7391 83.823 22.4124 83.823H22.5055V85.152C22.5055 87.8252 24.6803 90 27.3536 90H67.5882C70.2614 90 72.4362 87.8252 72.4362 85.152V73.3887C72.4362 72.6604 71.8461 72.0703 71.1178 72.0703C70.3896 72.0703 69.7995 72.6604 69.7995 73.3887V85.152C69.7995 86.3714 68.8074 87.3633 67.5882 87.3633H27.3536C26.1342 87.3633 25.1422 86.3712 25.1422 85.152V83.823H61.2405C63.9138 83.823 66.0886 81.6483 66.0886 78.975V8.81367H67.588C68.8074 8.81367 69.7993 9.80578 69.7993 11.025V67.2363C69.7995 67.9646 70.3896 68.5547 71.1178 68.5547ZM61.2407 81.1863H22.4124C21.193 81.1863 20.201 80.1942 20.201 78.975V43.2299H63.452V78.975C63.452 80.1944 62.4599 81.1863 61.2407 81.1863Z" fill="black"/>
<path d="M33.9881 12.6626C33.4509 12.1713 32.617 12.2082 32.1253 12.7456C29.9052 15.1728 28.6825 18.3224 28.6825 21.6141C28.6825 28.8623 34.5785 34.759 41.8258 34.759C49.0731 34.759 54.969 28.8623 54.969 21.6141C54.969 14.3668 49.0731 8.47095 41.8258 8.47095C40.4639 8.47095 39.1232 8.67819 37.8412 9.08689C37.1474 9.30802 36.7644 10.0496 36.9855 10.7433C37.2067 11.4371 37.9488 11.8198 38.6419 11.599C39.6648 11.2731 40.736 11.1077 41.8258 11.1077C47.619 11.1077 52.3323 15.8207 52.3323 21.6141C52.3323 27.4084 47.6192 32.1223 41.8258 32.1223C36.0324 32.1223 31.3192 27.4084 31.3192 21.6141C31.3192 18.9827 32.2966 16.4651 34.0709 14.5254C34.5624 13.988 34.5251 13.1541 33.9881 12.6626Z" fill="black"/>
<path d="M33.7077 49.0646C30.0613 49.0646 27.0946 52.0312 27.0946 55.6776C27.0946 59.324 30.0613 62.2907 33.7077 62.2907C37.3541 62.2907 40.3207 59.324 40.3207 55.6776C40.3207 52.0312 37.3541 49.0646 33.7077 49.0646ZM33.7077 59.654C31.515 59.654 29.7313 57.8703 29.7313 55.6776C29.7313 53.4849 31.515 51.7013 33.7077 51.7013C35.9004 51.7013 37.684 53.4849 37.684 55.6776C37.684 57.8703 35.9002 59.654 33.7077 59.654Z" fill="black"/>
<path d="M49.9449 62.125C46.2984 62.125 43.3318 65.0917 43.3318 68.7381C43.3318 72.3846 46.2984 75.3513 49.9449 75.3513C53.5914 75.3513 56.5581 72.3846 56.5581 68.7381C56.5581 65.0917 53.5914 62.125 49.9449 62.125ZM49.9449 72.7146C47.7522 72.7146 45.9685 70.9308 45.9685 68.7381C45.9685 66.5454 47.7522 64.7617 49.9449 64.7617C52.1375 64.7617 53.9214 66.5454 53.9214 68.7381C53.9214 70.9308 52.1375 72.7146 49.9449 72.7146Z" fill="black"/>
</g>
<defs>
<filter id="filter0_d" x="-4" y="0" width="98" height="98" filterUnits="userSpaceOnUse" color-interpolation-filters="sRGB">
<feFlood flood-opacity="0" result="BackgroundImageFix"/>
<feColorMatrix in="SourceAlpha" type="matrix" values="0 0 0 0 0 0 0 0 0 0 0 0 0 0 0 0 0 0 127 0"/>
<feOffset dy="4"/>
<feGaussianBlur stdDeviation="2"/>
<feColorMatrix type="matrix" values="0 0 0 0 0 0 0 0 0 0 0 0 0 0 0 0 0 0 0.25 0"/>
<feBlend mode="normal" in2="BackgroundImageFix" result="effect1_dropShadow"/>
<feBlend mode="normal" in="SourceGraphic" in2="effect1_dropShadow" result="shape"/>
</filter>
<clipPath id="clip0">
<rect width="90" height="90" fill="white"/>
</clipPath>
</defs>
</svg>
