<svg width="35" height="35" viewBox="0 0 35 35" fill="none" xmlns="http://www.w3.org/2000/svg">
<g clip-path="url(#clip0)">
<path d="M29.7612 5.56676e-08H1.73732C0.777695 0.000480708 -0.00024027 0.778896 5.56676e-08 1.73876V29.7627C0.000480708 30.7223 0.778896 31.5002 1.73876 31.5H29.7612C30.7213 31.5002 31.4998 30.7221 31.5 29.762C31.5 29.7617 31.5 29.7615 31.5 29.7612V1.73732C31.4995 0.777695 30.7211 -0.00024027 29.7612 5.56676e-08Z" fill="white"/>
<path d="M19.8147 35.3141V21.779H24.3777L25.0613 16.4811H19.8147V13.107C19.8147 11.5766 20.2395 10.5339 22.434 10.5339H25.2151V5.80826C24.7312 5.7439 23.0711 5.59998 21.1394 5.59998C17.1062 5.59998 14.3459 8.06091 14.3459 12.5822V16.4811H9.80005V21.779H14.3459V35.3141H19.8147Z" fill="#567DF0"/>
</g>
<defs>
<clipPath id="clip0">
<rect width="35" height="35" fill="white"/>
</clipPath>
</defs>
</svg>
