<svg width="208" height="202" viewBox="0 0 208 202" fill="none" xmlns="http://www.w3.org/2000/svg">
<g clip-path="url(#clip0)">
<path d="M61.0774 28.82C51.2341 25.4505 40.6471 30.2434 37.4771 39.5039L23.2028 81.2033L28.2594 115.784L118.991 162.738L132.747 167.447L200.154 76.428L162.632 63.5838L157.862 61.9509L108.796 53.999L81.2591 35.7285L61.0774 28.82Z" fill="#2AD8F6" fill-opacity="0.5"/>
<path d="M162.632 63.5839L157.862 61.951L122.097 56.1544L90.6347 148.063L118.991 162.738L132.747 167.447L200.154 76.428L162.632 63.5839Z" fill="#00C0F1" fill-opacity="0.5"/>
<path d="M36.3684 133.809L34.7398 138.567C33.3069 142.753 29.9231 145.764 25.8363 147.03C23.3453 147.804 20.5964 147.928 17.8679 147.281C17.3833 147.164 16.9025 147.025 16.4205 146.86L16.2301 146.795C14.6888 146.267 13.2869 145.523 12.0494 144.609C12.0494 144.609 12.0494 144.609 12.0463 144.608C9.212 142.175 7.34231 138.118 8.56253 134.553C9.37635 132.176 11.1385 130.375 13.3265 129.384C15.5184 128.392 18.9439 127.845 21.4709 128.71L36.3684 133.809Z" fill="#EEBB75" fill-opacity="0.5"/>
<path d="M118.991 162.738L21.2731 129.287C18.7462 128.422 16.1325 128.602 13.9405 129.595C11.7526 130.585 9.99043 132.386 9.17661 134.763C7.95639 138.328 9.212 142.175 12.0463 144.608C7.16094 140.993 4.87227 134.752 6.83609 129.015L23.2023 81.2047L27.0536 81.6679C28.2227 81.8099 55.8543 85.363 68.599 106C69.037 106.715 69.4717 107.409 69.896 108.084C77.2062 119.716 87.7367 129.717 100.347 137.009C109.677 142.4 115.237 148.324 116.874 154.613L118.991 162.738Z" fill="#C7EB4B" fill-opacity="0.5"/>
<path d="M157.862 61.951L147.844 61.5261C147.702 61.5195 133.636 60.9964 123.653 65.1178C114.951 68.7128 107.164 69.358 100.439 67.0562C99.0301 66.5738 97.6653 65.9614 96.3491 65.2171C91.2175 62.3213 87.0017 57.5219 83.4671 50.5419C80.1587 44.0135 80.702 38.3583 81.2592 35.7285L157.862 61.951Z" fill="#C7EB4B" fill-opacity="0.5"/>
<path d="M72.9065 68.4746L68.4912 60.1174L62.1663 62.9805L58.9227 56.8419L50.3122 60.7402L53.5553 66.8789L47.2306 69.7424L51.6459 78.0996L57.9709 75.2362L61.2144 81.375L69.8249 77.4768L66.5818 71.338L72.9065 68.4746Z" fill="#FF3636" fill-opacity="0.5"/>
<path d="M81.1733 95.4477C83.5824 96.2724 86.5726 95.0696 87.2622 92.6913C87.954 90.3054 86.7217 87.6656 84.1399 86.7817C81.7308 85.9571 78.7406 87.1599 78.051 89.5382C77.3592 91.9241 78.5912 94.5638 81.1733 95.4477Z" fill="#AD7042" fill-opacity="0.5"/>
<path d="M104.081 108.023C106.49 108.847 109.481 107.645 110.17 105.266C110.862 102.881 109.63 100.241 107.048 99.3568C104.639 98.5322 101.649 99.735 100.959 102.113C100.267 104.499 101.499 107.139 104.081 108.023Z" fill="#AD7042" fill-opacity="0.5"/>
<path d="M198.995 66.4145C198.181 68.7919 196.222 71.1706 194.034 72.1611C191.842 73.1534 188.611 73.1221 186.084 72.2571L172.052 67.4539L173.648 62.7916C176.108 55.6046 184.325 51.8823 191.967 54.4984L192.195 54.5761C192.955 54.8397 193.681 55.1529 194.37 55.5175L194.373 55.5186C197.991 57.8253 200.368 62.4051 198.995 66.4145Z" fill="#E69F34" fill-opacity="0.5"/>
<path d="M201.552 72.3434L170.943 161.759C167.768 171.035 157.202 175.818 147.343 172.443L132.746 167.447C135.999 163.206 136.466 157.492 133.885 152.656C132.523 150.102 130.472 147.066 127.41 143.536C118.633 133.422 115.348 123.468 117.648 113.945C119.208 107.482 123.402 101.354 130.118 95.7234C137.743 89.3299 162.633 63.5843 162.633 63.5843L186.282 71.6794C188.809 72.5444 191.425 72.3655 193.617 71.3732C195.805 70.3827 197.567 68.5817 198.381 66.2043C199.754 62.1949 197.991 57.8253 194.373 55.5186C200.583 58.7901 203.763 65.8844 201.552 72.3434Z" fill="#A7D22B" fill-opacity="0.5"/>
<path d="M136.291 119.479C138.7 120.303 141.69 119.101 142.38 116.722C143.071 114.336 141.839 111.697 139.257 110.813C136.848 109.988 133.858 111.191 133.168 113.569C132.477 115.955 133.709 118.595 136.291 119.479Z" fill="#914D24" fill-opacity="0.5"/>
<path d="M160.785 121.409C163.194 122.234 166.184 121.031 166.874 118.653C167.566 116.267 166.333 113.627 163.751 112.743C161.342 111.919 158.352 113.121 157.663 115.5C156.971 117.885 158.203 120.525 160.785 121.409Z" fill="#914D24" fill-opacity="0.5"/>
<path d="M124.072 50.384L118.397 66.9609C120.11 66.4709 121.862 65.8578 123.653 65.1178C133.636 60.9964 147.702 61.5195 147.844 61.5261L157.862 61.951L124.072 50.384Z" fill="#A7D22B" fill-opacity="0.5"/>
<path d="M89.1127 152.51L118.992 162.738L116.876 154.614C115.237 148.324 109.676 142.401 100.348 137.009C98.6804 136.044 97.0503 135.032 95.4578 133.975L89.113 152.51L89.1127 152.51Z" fill="#A7D22B" fill-opacity="0.5"/>
<path d="M107.277 99.4478L104.318 108.091C106.683 108.763 109.503 107.568 110.17 105.266C110.841 102.953 109.699 100.407 107.277 99.4478Z" fill="#914D24" fill-opacity="0.5"/>
</g>
<defs>
<clipPath id="clip0">
<rect width="165.867" height="156.05" fill="white" transform="translate(51) rotate(18.8969)"/>
</clipPath>
</defs>
</svg>
