<svg width="271" height="271" viewBox="0 0 271 271" fill="none" xmlns="http://www.w3.org/2000/svg">
<g clip-path="url(#clip0)">
<path d="M267.089 92.478C232.999 73.435 184.113 70.4136 144.325 85.0231C120.34 72.7599 92.0083 70.1175 65.873 78.0275C64.3581 78.4737 63.2228 79.7469 62.9483 81.3014C62.6772 82.8671 63.3081 84.4431 64.5831 85.3809L90.7269 104.594L85.1336 106.638C83.0545 107.396 81.9367 109.643 82.5786 111.764L104.52 184.259C104.851 185.353 105.599 186.217 106.546 186.724C107.421 187.192 108.46 187.351 109.492 187.101L115.28 185.7L104.178 216.186C103.637 217.673 104.182 219.269 105.261 220.414C105.54 220.705 105.865 220.945 106.225 221.138C107.268 221.696 108.577 221.811 109.701 221.477C135.476 213.676 157.587 195.767 170.747 172.262C212.016 162.32 251.161 132.791 268.762 97.9865C269.757 96.0047 269.023 93.5796 267.089 92.478ZM199.285 137.773C193.792 139.436 188.131 138.711 183.421 136.19C178.712 133.669 174.97 129.359 173.307 123.866C169.986 112.872 176.223 101.22 187.214 97.8876C198.212 94.559 209.864 100.797 213.192 111.795C216.521 122.792 210.279 134.452 199.285 137.773Z" fill="white" fill-opacity="0.3"/>
<path d="M47.9154 134.911C35.846 138.564 6.04153 168.301 2.68531 171.675C1.60373 172.76 1.21253 174.356 1.64899 175.818C1.97672 176.901 2.7092 177.775 3.67164 178.29C4.02429 178.479 4.40446 178.616 4.81217 178.702C9.47591 179.649 50.7681 187.868 62.8375 184.215C76.4297 180.101 84.1422 165.694 80.0285 152.102C75.9074 138.506 61.5036 130.805 47.9154 134.911Z" fill="white" fill-opacity="0.3"/>
</g>
<defs>
<clipPath id="clip0">
<rect width="200" height="200" fill="white" transform="translate(94.391) rotate(28.1613)"/>
</clipPath>
</defs>
</svg>
