<svg width="35" height="29" viewBox="0 0 35 29" fill="none" xmlns="http://www.w3.org/2000/svg">
<path d="M35 3.64781C33.6984 4.21875 32.3116 4.59719 30.8656 4.78094C32.3531 3.89281 33.4884 2.49719 34.0222 0.815C32.6353 1.64187 31.1041 2.22594 29.4722 2.55188C28.1553 1.14969 26.2784 0.28125 24.2309 0.28125C20.2584 0.28125 17.0603 3.50563 17.0603 7.45844C17.0603 8.02719 17.1084 8.57406 17.2266 9.09469C11.2612 8.80375 5.98281 5.94469 2.43687 1.58938C1.81781 2.66344 1.45469 3.89281 1.45469 5.21625C1.45469 7.70125 2.73438 9.90406 4.64187 11.1794C3.48906 11.1575 2.35812 10.8228 1.4 10.2956C1.4 10.3175 1.4 10.3459 1.4 10.3744C1.4 13.8612 3.88719 16.7575 7.14875 17.4247C6.56469 17.5844 5.92812 17.6609 5.2675 17.6609C4.80813 17.6609 4.34437 17.6347 3.90906 17.5384C4.83875 20.38 7.47688 22.4691 10.6138 22.5369C8.1725 24.4466 5.07281 25.5972 1.71719 25.5972C1.12875 25.5972 0.564375 25.5709 0 25.4987C3.17844 27.5484 6.94531 28.7188 11.0075 28.7188C24.2113 28.7188 31.43 17.7812 31.43 8.30062C31.43 7.98344 31.4191 7.67719 31.4037 7.37313C32.8278 6.3625 34.0244 5.10031 35 3.64781Z" fill="white"/>
</svg>
