<svg width="217" height="202" viewBox="0 0 217 202" fill="none" xmlns="http://www.w3.org/2000/svg">
<g clip-path="url(#clip0)" filter="url(#filter0_d)">
<path d="M211.108 65.4364L210.589 68.1987L23.8508 33.1448L24.3693 30.3825C25.8763 22.3232 31.0573 15.2926 38.7706 10.8404C46.4838 6.38816 56.0957 4.87988 65.4878 6.64801L181.396 28.4059C190.791 30.1645 199.2 35.0556 204.774 42.002C210.347 48.9484 212.626 57.3792 211.108 65.4364Z" fill="#E57E25" fill-opacity="0.5"/>
<path d="M38.0923 81.5693L23.8509 33.1447L117.888 46.5089L210.589 68.1987L179.756 108.162L38.0923 81.5693Z" fill="#805333" fill-opacity="0.5"/>
<path d="M51.5778 84.6385L63.3736 79.5102L68.9523 84.7316L70.1058 93.0284L51.5778 84.6385Z" fill="#802F34" fill-opacity="0.5"/>
<path d="M128.242 98.492L195.404 111.099C197.184 111.435 198.767 112.387 199.777 113.73C200.787 115.073 201.135 116.687 200.739 118.192L181.655 188.954C180.891 191.812 177.666 193.544 174.278 192.917L12.4607 162.541C9.07582 161.897 6.69863 159.113 7.02344 156.173L14.9008 83.3072C15.0774 81.7612 15.988 80.3834 17.4154 79.4974C18.8439 78.6128 20.6639 78.299 22.445 78.6321L128.242 98.492Z" fill="#F29C1F" fill-opacity="0.5"/>
<path d="M92.2917 95.4383L92.0324 79.3771L88.7531 67.375C95.9795 67.37 103.228 68.0499 110.371 69.4021C114.592 70.187 118.765 71.1993 122.868 72.4351L126.67 101.892L92.2917 95.4383Z" fill="#F3D55B" fill-opacity="0.5"/>
<path d="M85.4163 81.2451L81.8149 89.7767L66.2315 86.8515L63.2583 83.6919L63.2635 83.6638L67.05 74.681L78.1421 73.4746L85.3836 81.239L85.4163 81.2451Z" fill="#CC4B4C" fill-opacity="0.5"/>
<path d="M136.383 77.3166L136.437 77.2115L136.754 77.4722L136.383 77.3166Z" fill="#804537" fill-opacity="0.5"/>
<path d="M112.253 112.647C111.68 115.698 108.332 117.63 104.776 116.963C101.22 116.295 98.8007 113.28 99.3733 110.229C99.946 107.179 103.294 105.247 106.85 105.915C110.406 106.582 112.825 109.596 112.253 112.647Z" fill="#2C2F38" fill-opacity="0.5"/>
<path d="M89.6066 91.2395L85.4586 113.336C83.7404 122.49 90.9956 131.532 101.665 133.535C112.335 135.538 122.375 129.742 124.094 120.589L128.242 98.4919L89.6066 91.2395ZM104.776 116.963C101.22 116.295 98.8008 113.28 99.3735 110.229C99.9462 107.179 103.294 105.247 106.85 105.915C110.406 106.582 112.825 109.596 112.253 112.647C111.669 115.692 108.33 117.621 104.776 116.963Z" fill="#F0C419" fill-opacity="0.5"/>
<path d="M88.3427 125.315L31.2593 114.599L32.7526 100.783C32.8335 100.006 33.2869 99.3115 34.0019 98.865C34.7184 98.4187 35.6327 98.2626 36.5272 98.4318L86.4957 107.812L85.4587 113.336C84.6805 117.419 85.7103 121.692 88.3427 125.315Z" fill="#AF8066" fill-opacity="0.5"/>
<path d="M174.145 141.421L169.746 157.753L29.4359 131.415L31.2592 114.599L88.3426 125.315C91.3314 129.515 96.1786 132.505 101.665 133.535C107.152 134.565 112.753 133.536 117.062 130.706L174.145 141.421Z" fill="#805333" fill-opacity="0.5"/>
<path d="M169.746 157.753L166.023 171.551C165.633 172.979 164.015 173.838 162.321 173.516L30.6391 148.797C28.9445 148.483 27.7477 147.095 27.9016 145.623L29.436 131.415L169.746 157.753Z" fill="#AF8066" fill-opacity="0.5"/>
<path d="M177.764 128.004L174.145 141.421L117.062 130.706C120.829 128.284 123.338 124.676 124.094 120.589L125.131 115.064L175.099 124.444C175.994 124.611 176.79 125.088 177.296 125.764C177.8 126.439 177.971 127.251 177.764 128.004Z" fill="#AF8066" fill-opacity="0.5"/>
<path d="M84.8068 10.2745C71.3163 7.7421 58.7738 9.21902 50.5033 15.2723C46.8865 17.8984 44.1663 21.3267 42.6022 25.2276C41.8657 26.9746 41.3246 28.7887 40.9853 30.6433L39.9485 36.1666L23.8508 33.1448L24.3693 30.3825C25.8763 22.3232 31.0573 15.2926 38.7706 10.8404C46.4838 6.38816 56.0957 4.87988 65.4878 6.64801L84.8068 10.2745Z" fill="#F0C419" fill-opacity="0.5"/>
<path d="M211.108 65.4364L210.589 68.1987L194.492 65.1769L195.528 59.6536C195.885 57.8022 196.038 55.9154 195.986 54.0202C195.943 49.8176 194.651 45.6362 192.233 41.8773C186.721 33.2367 175.567 27.3118 162.077 24.7794L181.396 28.4059C190.791 30.1645 199.2 35.0556 204.774 42.002C210.347 48.9484 212.626 57.3792 211.108 65.4364Z" fill="#F0C419" fill-opacity="0.5"/>
<path d="M195.528 59.6537L194.492 65.177L39.9486 36.1667L40.9854 30.6434C41.3247 28.7888 41.8658 26.9747 42.6023 25.2277L195.986 54.0203C196.038 55.9155 195.885 57.8024 195.528 59.6537Z" fill="#CB8252" fill-opacity="0.5"/>
<path d="M195.985 54.0203L42.6021 25.2276C44.1662 21.3267 46.8864 17.8984 50.5032 15.2724L192.232 41.8773C194.651 45.6363 195.942 49.8177 195.985 54.0203Z" fill="#AF8066" fill-opacity="0.5"/>
<path d="M103.221 125.249C101.443 124.916 100.233 123.408 100.519 121.883L101.556 116.358C101.843 114.833 103.517 113.867 105.295 114.2C107.073 114.534 108.282 116.042 107.996 117.567L106.959 123.092C106.673 124.617 104.999 125.583 103.221 125.249Z" fill="#2C2F38" fill-opacity="0.5"/>
<path d="M172.123 104.613L158.723 94.3203L157.224 80.1128L159.469 81.8212L170.595 90.3729L172.123 104.613Z" fill="#E64C3C" fill-opacity="0.5"/>
<path d="M152.737 76.6692L136.437 77.2116L123.035 66.9194L139.364 66.41L150.523 74.9667L152.737 76.6692Z" fill="#CC4B4C" fill-opacity="0.5"/>
<path d="M158.723 94.3203L136.813 77.5112L136.754 77.4723L136.437 77.2116L152.737 76.6692L152.769 76.6751L157.224 80.1128L158.723 94.3203Z" fill="#FB7B76" fill-opacity="0.5"/>
<path d="M136.437 77.2116L136.383 77.3166L127.34 98.3225L122.06 97.3314L122.867 72.4349L123.036 66.9193L136.437 77.2116Z" fill="#FF5364" fill-opacity="0.5"/>
<path d="M158.723 94.3204L143.536 101.363L127.34 98.3226L136.383 77.3167L136.754 77.4723L136.813 77.5113L158.723 94.3204Z" fill="#CC4B4C" fill-opacity="0.5"/>
<path d="M172.123 104.613L165.622 105.509L143.536 101.363L158.723 94.3203L172.123 104.613Z" fill="#802F34" fill-opacity="0.5"/>
<path d="M100.253 79.6269L94.9508 92.2427L81.815 89.7769L85.4165 81.2452L100.253 79.6269Z" fill="#802F34" fill-opacity="0.5"/>
<path d="M100.252 79.6269L85.4163 81.2452L85.3836 81.239L78.1421 73.4747L83.1999 61.4433L88.753 67.3749L100.252 79.6269Z" fill="#E64C3C" fill-opacity="0.5"/>
<path d="M83.1998 61.4433L78.1419 73.4746L67.0499 74.681L57.3045 64.2741L83.1998 61.4433Z" fill="#FB7B76" fill-opacity="0.5"/>
<path d="M67.05 74.6811L63.2636 83.6639L54.4164 84.6337L49.1678 83.6485L53.3281 73.735L57.3046 64.2742L67.05 74.6811Z" fill="#FF5364" fill-opacity="0.5"/>
</g>
<defs>
<filter id="filter0_d" x="-4" y="0" width="224.811" height="203.256" filterUnits="userSpaceOnUse" color-interpolation-filters="sRGB">
<feFlood flood-opacity="0" result="BackgroundImageFix"/>
<feColorMatrix in="SourceAlpha" type="matrix" values="0 0 0 0 0 0 0 0 0 0 0 0 0 0 0 0 0 0 127 0"/>
<feOffset dy="4"/>
<feGaussianBlur stdDeviation="2"/>
<feColorMatrix type="matrix" values="0 0 0 0 0 0 0 0 0 0 0 0 0 0 0 0 0 0 0.25 0"/>
<feBlend mode="normal" in2="BackgroundImageFix" result="effect1_dropShadow"/>
<feBlend mode="normal" in="SourceGraphic" in2="effect1_dropShadow" result="shape"/>
</filter>
<clipPath id="clip0">
<rect width="190" height="163" fill="white" transform="translate(30.0726) rotate(10.6317)"/>
</clipPath>
</defs>
</svg>
