<svg width="98" height="90" viewBox="0 0 98 90" fill="none" xmlns="http://www.w3.org/2000/svg">
<g filter="url(#filter0_d)">
<path d="M60.167 77.5144C78.1243 77.5144 92.6816 62.9572 92.6816 44.9998C92.6816 27.0425 78.1243 12.4852 60.167 12.4852C42.2096 12.4852 27.6523 27.0425 27.6523 44.9998C27.6523 62.9572 42.2096 77.5144 60.167 77.5144Z" fill="#95D6A4"/>
<path d="M60.1671 12.4855C59.344 12.4855 58.5284 12.5168 57.7207 12.5769C74.5352 13.8276 87.789 27.8656 87.789 44.9999C87.789 62.1342 74.5352 76.1723 57.7207 77.4231C58.5284 77.4832 59.344 77.5145 60.1671 77.5145C78.1243 77.5143 92.6817 62.9572 92.6817 44.9999C92.6817 27.0426 78.1243 12.4855 60.1671 12.4855Z" fill="#78C2A4"/>
<path d="M60.1671 69.9667C73.9558 69.9667 85.1338 58.7887 85.1338 44.9999C85.1338 31.2112 73.9558 20.0332 60.1671 20.0332C46.3783 20.0332 35.2003 31.2112 35.2003 44.9999C35.2003 58.7887 46.3783 69.9667 60.1671 69.9667Z" fill="#F4FBFF"/>
<path d="M60.1671 20.0332C59.4075 20.0332 58.6564 20.0691 57.9141 20.1355C70.6468 21.2746 80.6276 31.9709 80.6276 44.9999C80.6276 58.029 70.6468 68.7251 57.9141 69.8644C58.6564 69.9306 59.4075 69.9667 60.1671 69.9667C73.9559 69.9667 85.1338 58.7888 85.1338 45.0001C85.1338 31.2111 73.9559 20.0332 60.1671 20.0332Z" fill="#DAF1F4"/>
<path d="M10.833 26.2281H24.737C25.465 26.2281 26.0553 25.6381 26.0553 24.9098C26.0553 24.1815 25.465 23.5914 24.737 23.5914H10.833C10.1049 23.5914 9.51465 24.1815 9.51465 24.9098C9.51465 25.6381 10.1047 26.2281 10.833 26.2281Z" fill="black"/>
<path d="M24.2603 32.5752H18.7678C18.0397 32.5752 17.4495 33.1653 17.4495 33.8936C17.4495 34.6218 18.0397 35.2119 18.7678 35.2119H24.2603C24.9884 35.2119 25.5786 34.6218 25.5786 33.8936C25.5786 33.1653 24.9884 32.5752 24.2603 32.5752Z" fill="black"/>
<path d="M5.31836 41.7175H18.7677C19.4958 41.7175 20.0861 41.1274 20.0861 40.3992C20.0861 39.6709 19.4958 39.0808 18.7677 39.0808H5.31836C4.59027 39.0808 4 39.6709 4 40.3992C4 41.1274 4.59027 41.7175 5.31836 41.7175Z" fill="black"/>
<path d="M26.0553 65.0897C26.0553 64.3615 25.465 63.7714 24.737 63.7714H10.833C10.1049 63.7714 9.51465 64.3615 9.51465 65.0897C9.51465 65.818 10.1049 66.4081 10.833 66.4081H24.737C25.465 66.4081 26.0553 65.818 26.0553 65.0897Z" fill="black"/>
<path d="M24.2603 54.788H18.7678C18.0397 54.788 17.4495 55.3781 17.4495 56.1063C17.4495 56.8346 18.0397 57.4247 18.7678 57.4247H24.2603C24.9884 57.4247 25.5786 56.8346 25.5786 56.1063C25.5786 55.3781 24.9884 54.788 24.2603 54.788Z" fill="black"/>
<path d="M20.0861 49.6006C20.0861 48.8723 19.4958 48.2822 18.7677 48.2822H5.31836C4.59027 48.2822 4 48.8723 4 49.6006C4 50.3288 4.59027 50.9189 5.31836 50.9189H18.7677C19.4958 50.9189 20.0861 50.3288 20.0861 49.6006Z" fill="black"/>
<path d="M60.1671 29.1497C60.8954 29.1497 61.4855 28.5596 61.4855 27.8313V25.819C61.4855 25.0907 60.8954 24.5006 60.1671 24.5006C59.4389 24.5006 58.8488 25.0907 58.8488 25.819V27.8313C58.8488 28.5596 59.4389 29.1497 60.1671 29.1497Z" fill="black"/>
<path d="M74.6622 30.5047C74.1472 29.99 73.3126 29.99 72.7977 30.5047L71.3748 31.9276C70.8599 32.4427 70.8599 33.2773 71.3748 33.7921C71.89 34.307 72.7244 34.3068 73.2393 33.7921L74.6622 32.3692C75.1769 31.8543 75.1769 31.0197 74.6622 30.5047Z" fill="black"/>
<path d="M77.3358 43.6816C76.6076 43.6816 76.0175 44.2717 76.0175 45C76.0175 45.7283 76.6076 46.3184 77.3358 46.3184H79.348C80.0762 46.3184 80.6663 45.7283 80.6663 45C80.6663 44.2717 80.0762 43.6816 79.348 43.6816H77.3358Z" fill="black"/>
<path d="M73.2393 56.2075C72.7243 55.6929 71.8897 55.6929 71.3748 56.2075C70.8599 56.7226 70.8599 57.5572 71.3748 58.0721L72.7977 59.495C73.313 60.0099 74.1474 60.0097 74.6623 59.495C75.1771 58.98 75.1771 58.1454 74.6623 57.6305L73.2393 56.2075Z" fill="black"/>
<path d="M58.8488 62.1685V64.1806C58.8488 64.9089 59.4389 65.499 60.1671 65.499C60.8954 65.499 61.4855 64.9089 61.4855 64.1806V62.1685C61.4855 61.4402 60.8954 60.8501 60.1671 60.8501C59.4389 60.8501 58.8488 61.4404 58.8488 62.1685Z" fill="black"/>
<path d="M47.0949 56.2075L45.6719 57.6305C45.1571 58.1455 45.1571 58.9801 45.6719 59.495C46.187 60.0099 47.0216 60.0097 47.5362 59.495L48.9592 58.0721C49.4741 57.557 49.4741 56.7224 48.9592 56.2075C48.4445 55.6929 47.6097 55.6929 47.0949 56.2075Z" fill="black"/>
<path d="M40.9863 43.6816C40.2582 43.6816 39.668 44.2717 39.668 45C39.668 45.7283 40.2582 46.3184 40.9863 46.3184H42.9987C43.7268 46.3184 44.317 45.7283 44.317 45C44.317 44.2717 43.7268 43.6816 42.9987 43.6816H40.9863Z" fill="black"/>
<path d="M48.9594 31.9276L47.5365 30.5047C47.0216 29.99 46.1868 29.99 45.6722 30.5047C45.1573 31.0197 45.1573 31.8543 45.6722 32.3692L47.0951 33.7921C47.6101 34.307 48.4447 34.3068 48.9594 33.7921C49.4743 33.2773 49.4743 32.4427 48.9594 31.9276Z" fill="black"/>
<path d="M67.2564 44.9999C67.2564 44.2716 66.6663 43.6815 65.938 43.6815H61.4855V33.8933C61.4855 33.165 60.8954 32.575 60.1671 32.575C59.4389 32.575 58.8488 33.165 58.8488 33.8933V44.9999C58.8488 45.7281 59.4389 46.3182 60.1671 46.3182H65.938C66.6661 46.3182 67.2564 45.7281 67.2564 44.9999Z" fill="black"/>
<path d="M85.1654 44.7823C85.8922 44.7381 86.4456 44.1133 86.4015 43.3866C85.5628 29.5521 74.0393 18.715 60.167 18.715C45.6735 18.715 33.8821 30.5064 33.8821 45.0001C33.8821 59.4936 45.6735 71.285 60.167 71.285C73.1518 71.285 84.2315 61.7714 86.1589 48.9332C86.267 48.2132 85.771 47.5419 85.0508 47.4338C84.3325 47.326 83.6595 47.8215 83.5514 48.5419C81.8199 60.0756 71.8609 68.6484 60.167 68.6484C47.1274 68.6484 36.5188 58.0399 36.5188 45.0002C36.5188 31.9606 47.1274 21.3519 60.167 21.3519C72.6477 21.3519 83.015 31.1009 83.7695 43.5465C83.8134 44.2729 84.4378 44.8245 85.1654 44.7823Z" fill="black"/>
<path d="M60.167 11.1671C55.5297 11.1671 50.9863 12.1292 46.8044 13.9283H23.5435C22.8154 13.9283 22.2251 14.5184 22.2251 15.2466C22.2251 15.9749 22.8154 16.565 23.5435 16.565H41.8446C39.3701 18.1576 37.0922 20.0785 35.0837 22.2962C34.595 22.8357 34.6361 23.6694 35.1758 24.1582C35.7156 24.6471 36.549 24.6058 37.038 24.0661C42.9446 17.5443 51.3749 13.8038 60.167 13.8038C77.3686 13.8038 91.3632 27.7983 91.3632 44.9999C91.3632 62.2013 77.3688 76.196 60.167 76.196C42.9654 76.196 28.9709 62.2015 28.9709 44.9999C28.9709 38.9762 30.6916 33.1298 33.9467 28.0922C34.3419 27.4807 34.1664 26.6647 33.5549 26.2695C32.9434 25.8746 32.1274 26.0496 31.7321 26.6614C28.2006 32.126 26.3342 38.4674 26.3342 44.9999C26.3342 56.9119 32.5227 67.4046 41.853 73.4348H23.5436C22.8155 73.4348 22.2253 74.0249 22.2253 74.7532C22.2253 75.4814 22.8155 76.0715 23.5436 76.0715H46.7863C50.8926 77.8467 55.4166 78.8327 60.1671 78.8327C78.8225 78.8327 93.9999 63.6554 93.9999 44.9999C93.9999 26.3444 78.8225 11.1671 60.167 11.1671Z" fill="black"/>
</g>
<defs>
<filter id="filter0_d" x="0" y="0" width="98" height="98" filterUnits="userSpaceOnUse" color-interpolation-filters="sRGB">
<feFlood flood-opacity="0" result="BackgroundImageFix"/>
<feColorMatrix in="SourceAlpha" type="matrix" values="0 0 0 0 0 0 0 0 0 0 0 0 0 0 0 0 0 0 127 0"/>
<feOffset dy="4"/>
<feGaussianBlur stdDeviation="2"/>
<feColorMatrix type="matrix" values="0 0 0 0 0 0 0 0 0 0 0 0 0 0 0 0 0 0 0.25 0"/>
<feBlend mode="normal" in2="BackgroundImageFix" result="effect1_dropShadow"/>
<feBlend mode="normal" in="SourceGraphic" in2="effect1_dropShadow" result="shape"/>
</filter>
</defs>
</svg>
