<svg width="244" height="36" viewBox="0 0 244 36" fill="none" xmlns="http://www.w3.org/2000/svg">
<path d="M43.8429 12.7843C39.9939 4.55583 35.8698 3.98102 32.0302 5.94233C30.8656 6.53688 29.865 7.29944 29.1381 8.29899H18.8637C18.1367 7.29944 17.1361 6.53688 15.9715 5.94233C12.1319 3.98102 8.00763 4.55583 4.15873 12.7843C0.306712 21.0137 -1.81013 33.7807 2.02952 35.7422C4.69822 37.1041 9.53824 32.8857 13.5358 27.4262H34.4627C38.4603 32.8857 43.3003 37.1041 45.969 35.7422C49.8117 33.7807 47.6918 21.0137 43.8429 12.7843ZM17.9225 17.9263C17.9225 18.2587 17.6583 18.5282 17.333 18.5282H14.5144V21.5463C14.5144 21.8786 14.2517 22.1482 13.9265 22.1482H12.9292H11.9317C11.6081 22.1482 11.3439 21.8786 11.3439 21.5463V18.5281H8.52531C8.20023 18.5281 7.93586 18.2586 7.93586 17.9262V15.884C7.93586 15.5517 8.20013 15.2823 8.52531 15.2823H11.344V12.2634C11.344 11.9312 11.6082 11.6615 11.9318 11.6615H12.9294H13.9267C14.2519 11.6615 14.5146 11.9311 14.5146 12.2634V15.2823H17.3332C17.6585 15.2823 17.9227 15.5518 17.9227 15.884V17.9263H17.9225ZM36.1495 12.7869C36.1495 13.8247 35.3461 14.6657 34.3517 14.6657C33.3574 14.6657 32.5538 13.8247 32.5538 12.7869C32.5538 11.749 33.3575 10.908 34.3517 10.908C35.346 10.908 36.1495 11.749 36.1495 12.7869ZM30.6436 18.5395C29.6492 18.5395 28.8457 17.6977 28.8457 16.6598C28.8457 15.6236 29.6493 14.7818 30.6436 14.7818C31.6378 14.7818 32.4414 15.6236 32.4414 16.6598C32.4414 17.6976 31.6378 18.5395 30.6436 18.5395ZM38.0667 18.5395C37.0723 18.5395 36.2688 17.6977 36.2688 16.6598C36.2688 15.6236 37.0724 14.7818 38.0667 14.7818C39.0609 14.7818 39.8644 15.6236 39.8644 16.6598C39.8644 17.6976 39.061 18.5395 38.0667 18.5395ZM34.3517 22.4132C33.3574 22.4132 32.5538 21.5722 32.5538 20.5343C32.5538 19.4965 33.3575 18.6555 34.3517 18.6555C35.346 18.6555 36.1495 19.4965 36.1495 20.5343C36.1495 21.5722 35.3461 22.4132 34.3517 22.4132Z" fill="white"/>
<path d="M77.65 28H74.15L66.225 16.025V28H62.725V10.525H66.225L74.15 22.525V10.525H77.65V28ZM93.9838 20.775C93.9838 21.275 93.9505 21.725 93.8838 22.125H83.7588C83.8421 23.125 84.1921 23.9083 84.8088 24.475C85.4255 25.0417 86.1838 25.325 87.0838 25.325C88.3838 25.325 89.3088 24.7667 89.8588 23.65H93.6338C93.2338 24.9833 92.4671 26.0833 91.3338 26.95C90.2005 27.8 88.8088 28.225 87.1588 28.225C85.8255 28.225 84.6255 27.9333 83.5588 27.35C82.5088 26.75 81.6838 25.9083 81.0838 24.825C80.5005 23.7417 80.2088 22.4917 80.2088 21.075C80.2088 19.6417 80.5005 18.3833 81.0838 17.3C81.6671 16.2167 82.4838 15.3833 83.5338 14.8C84.5838 14.2167 85.7921 13.925 87.1588 13.925C88.4755 13.925 89.6505 14.2083 90.6838 14.775C91.7338 15.3417 92.5421 16.15 93.1088 17.2C93.6921 18.2333 93.9838 19.425 93.9838 20.775ZM90.3588 19.775C90.3421 18.875 90.0171 18.1583 89.3838 17.625C88.7505 17.075 87.9755 16.8 87.0588 16.8C86.1921 16.8 85.4588 17.0667 84.8588 17.6C84.2755 18.1167 83.9171 18.8417 83.7838 19.775H90.3588ZM100.038 16.3C100.488 15.5667 101.072 14.9917 101.788 14.575C102.522 14.1583 103.355 13.95 104.288 13.95V17.625H103.363C102.263 17.625 101.43 17.8833 100.863 18.4C100.313 18.9167 100.038 19.8167 100.038 21.1V28H96.5385V14.15H100.038V16.3ZM105.746 21.025C105.746 19.625 106.021 18.3833 106.571 17.3C107.138 16.2167 107.904 15.3833 108.871 14.8C109.838 14.2167 110.913 13.925 112.096 13.925C112.996 13.925 113.854 14.125 114.671 14.525C115.488 14.9083 116.138 15.425 116.621 16.075V9.5H120.171V28H116.621V25.95C116.188 26.6333 115.579 27.1833 114.796 27.6C114.013 28.0167 113.104 28.225 112.071 28.225C110.904 28.225 109.838 27.925 108.871 27.325C107.904 26.725 107.138 25.8833 106.571 24.8C106.021 23.7 105.746 22.4417 105.746 21.025ZM116.646 21.075C116.646 20.225 116.479 19.5 116.146 18.9C115.813 18.2833 115.363 17.8167 114.796 17.5C114.229 17.1667 113.621 17 112.971 17C112.321 17 111.721 17.1583 111.171 17.475C110.621 17.7917 110.171 18.2583 109.821 18.875C109.488 19.475 109.321 20.1917 109.321 21.025C109.321 21.8583 109.488 22.5917 109.821 23.225C110.171 23.8417 110.621 24.3167 111.171 24.65C111.738 24.9833 112.338 25.15 112.971 25.15C113.621 25.15 114.229 24.9917 114.796 24.675C115.363 24.3417 115.813 23.875 116.146 23.275C116.479 22.6583 116.646 21.925 116.646 21.075ZM127.089 9.5V28H123.589V9.5H127.089ZM129.647 21.025C129.647 19.625 129.922 18.3833 130.472 17.3C131.039 16.2167 131.797 15.3833 132.747 14.8C133.714 14.2167 134.789 13.925 135.972 13.925C137.006 13.925 137.906 14.1333 138.672 14.55C139.456 14.9667 140.081 15.4917 140.547 16.125V14.15H144.072V28H140.547V25.975C140.097 26.625 139.472 27.1667 138.672 27.6C137.889 28.0167 136.981 28.225 135.947 28.225C134.781 28.225 133.714 27.925 132.747 27.325C131.797 26.725 131.039 25.8833 130.472 24.8C129.922 23.7 129.647 22.4417 129.647 21.025ZM140.547 21.075C140.547 20.225 140.381 19.5 140.047 18.9C139.714 18.2833 139.264 17.8167 138.697 17.5C138.131 17.1667 137.522 17 136.872 17C136.222 17 135.622 17.1583 135.072 17.475C134.522 17.7917 134.072 18.2583 133.722 18.875C133.389 19.475 133.222 20.1917 133.222 21.025C133.222 21.8583 133.389 22.5917 133.722 23.225C134.072 23.8417 134.522 24.3167 135.072 24.65C135.639 24.9833 136.239 25.15 136.872 25.15C137.522 25.15 138.131 24.9917 138.697 24.675C139.264 24.3417 139.714 23.875 140.047 23.275C140.381 22.6583 140.547 21.925 140.547 21.075ZM137.347 11.075L133.622 13.175V10.625L137.347 8.6L141.047 10.625V13.175L137.347 11.075ZM155.166 13.95C156.816 13.95 158.149 14.475 159.166 15.525C160.182 16.5583 160.691 18.0083 160.691 19.875V28H157.191V20.35C157.191 19.25 156.916 18.4083 156.366 17.825C155.816 17.225 155.066 16.925 154.116 16.925C153.149 16.925 152.382 17.225 151.816 17.825C151.266 18.4083 150.991 19.25 150.991 20.35V28H147.491V14.15H150.991V15.875C151.457 15.275 152.049 14.8083 152.766 14.475C153.499 14.125 154.299 13.95 155.166 13.95ZM163.119 21.025C163.119 19.625 163.394 18.3833 163.944 17.3C164.511 16.2167 165.277 15.3833 166.244 14.8C167.211 14.2167 168.286 13.925 169.469 13.925C170.369 13.925 171.227 14.125 172.044 14.525C172.861 14.9083 173.511 15.425 173.994 16.075V9.5H177.544V28H173.994V25.95C173.561 26.6333 172.952 27.1833 172.169 27.6C171.386 28.0167 170.477 28.225 169.444 28.225C168.277 28.225 167.211 27.925 166.244 27.325C165.277 26.725 164.511 25.8833 163.944 24.8C163.394 23.7 163.119 22.4417 163.119 21.025ZM174.019 21.075C174.019 20.225 173.852 19.5 173.519 18.9C173.186 18.2833 172.736 17.8167 172.169 17.5C171.602 17.1667 170.994 17 170.344 17C169.694 17 169.094 17.1583 168.544 17.475C167.994 17.7917 167.544 18.2583 167.194 18.875C166.861 19.475 166.694 20.1917 166.694 21.025C166.694 21.8583 166.861 22.5917 167.194 23.225C167.544 23.8417 167.994 24.3167 168.544 24.65C169.111 24.9833 169.711 25.15 170.344 25.15C170.994 25.15 171.602 24.9917 172.169 24.675C172.736 24.3417 173.186 23.875 173.519 23.275C173.852 22.6583 174.019 21.925 174.019 21.075ZM182.737 12.5C182.121 12.5 181.604 12.3083 181.187 11.925C180.787 11.525 180.587 11.0333 180.587 10.45C180.587 9.86667 180.787 9.38333 181.187 9C181.604 8.6 182.121 8.4 182.737 8.4C183.354 8.4 183.862 8.6 184.262 9C184.679 9.38333 184.887 9.86667 184.887 10.45C184.887 11.0333 184.679 11.525 184.262 11.925C183.862 12.3083 183.354 12.5 182.737 12.5ZM184.462 14.15V28H180.962V14.15H184.462ZM187.02 21.025C187.02 19.625 187.295 18.3833 187.845 17.3C188.412 16.2167 189.17 15.3833 190.12 14.8C191.087 14.2167 192.162 13.925 193.345 13.925C194.379 13.925 195.279 14.1333 196.045 14.55C196.829 14.9667 197.454 15.4917 197.92 16.125V14.15H201.445V28H197.92V25.975C197.47 26.625 196.845 27.1667 196.045 27.6C195.262 28.0167 194.354 28.225 193.32 28.225C192.154 28.225 191.087 27.925 190.12 27.325C189.17 26.725 188.412 25.8833 187.845 24.8C187.295 23.7 187.02 22.4417 187.02 21.025ZM197.92 21.075C197.92 20.225 197.754 19.5 197.42 18.9C197.087 18.2833 196.637 17.8167 196.07 17.5C195.504 17.1667 194.895 17 194.245 17C193.595 17 192.995 17.1583 192.445 17.475C191.895 17.7917 191.445 18.2583 191.095 18.875C190.762 19.475 190.595 20.1917 190.595 21.025C190.595 21.8583 190.762 22.5917 191.095 23.225C191.445 23.8417 191.895 24.3167 192.445 24.65C193.012 24.9833 193.612 25.15 194.245 25.15C194.895 25.15 195.504 24.9917 196.07 24.675C196.637 24.3417 197.087 23.875 197.42 23.275C197.754 22.6583 197.92 21.925 197.92 21.075Z" fill="white"/>
</svg>
