<svg width="269" height="269" viewBox="0 0 269 269" fill="none" xmlns="http://www.w3.org/2000/svg">
<g clip-path="url(#clip0)">
<path d="M264.931 88.1736C230.38 69.9804 181.434 68.1705 142.02 83.7606C117.739 72.0951 89.3503 70.155 63.4189 78.7097C61.9155 79.1933 60.812 80.4942 60.5761 82.055C60.3439 83.627 61.0136 85.1869 62.3115 86.0928L88.923 104.653L83.382 106.834C81.3223 107.644 80.2605 109.918 80.9546 112.022L104.684 183.952C105.042 185.037 105.811 185.882 106.771 186.366C107.657 186.812 108.7 186.946 109.725 186.669L115.477 185.126L105.133 215.877C104.629 217.377 105.213 218.959 106.32 220.077C106.606 220.361 106.937 220.593 107.302 220.777C108.359 221.309 109.67 221.392 110.786 221.03C136.359 212.593 158.02 194.142 170.594 170.318C211.604 159.358 250.006 128.869 266.74 93.6389C267.686 91.6331 266.892 89.2269 264.931 88.1736ZM198.27 135.134C192.819 136.932 187.142 136.348 182.371 133.944C177.601 131.54 173.753 127.325 171.955 121.874C168.363 110.966 174.31 99.1628 185.214 95.5592C196.126 91.9594 207.929 97.9066 211.529 108.819C215.129 119.731 209.178 131.541 198.27 135.134Z" fill="white" fill-opacity="0.5"/>
<path d="M46.8752 136.02C34.9 139.971 5.84098 170.437 2.56933 173.893C1.51493 175.004 1.16337 176.609 1.63591 178.06C1.99035 179.135 2.74425 179.991 3.71915 180.482C4.07636 180.662 4.45982 180.79 4.86954 180.865C9.55528 181.696 51.0384 188.891 63.0136 184.94C76.4998 180.491 83.8532 165.897 79.4042 152.411C74.9477 138.921 60.3576 131.579 46.8752 136.02Z" fill="white" fill-opacity="0.5"/>
</g>
<defs>
<clipPath id="clip0">
<rect width="200" height="200" fill="white" transform="translate(89.9961) rotate(26.7424)"/>
</clipPath>
</defs>
</svg>
